<svg xmlns="http://www.w3.org/2000/svg" version="1.1" xmlns:xlink="http://www.w3.org/1999/xlink" xmlns:svgjs="http://svgjs.dev/svgjs" width="1440" height="560" preserveAspectRatio="none" viewBox="0 0 1440 560"><g mask="url(&quot;#SvgjsMask1274&quot;)" fill="none"><rect width="1440" height="560" x="0" y="0" fill="rgba(175, 211, 226, 1)"></rect><path d="M 0,43 C 72,111 216,376.2 360,383 C 504,389.8 576,85.2 720,77 C 864,68.8 936,335.6 1080,342 C 1224,348.4 1368,155.6 1440,109L1440 560L0 560z" fill="rgba(53, 134, 255, 0.37)"></path><path d="M 0,447 C 96,383.6 288,124.8 480,130 C 672,135.2 768,454 960,473 C 1152,492 1344,274.6 1440,225L1440 560L0 560z" fill="rgba(53, 134, 255, 0.74)"></path><path d="M 0,16 C 144,102 432,444 720,446 C 1008,448 1296,110 1440,26L1440 560L0 560z" fill="rgba(53, 134, 255, 1)"></path></g><defs><mask id="SvgjsMask1274"><rect width="1440" height="560" fill="#ffffff"></rect></mask></defs></svg>